# xmcd
#
# Track frame offsets: 
#        150
#        12941
#        26923
#        41480
#        55085
#        68320
#        82204
#        96056
#        111487
#        124963
#        138949
#        151914
#        165139
#        178745
#        192725
#        205636
#        221046
#        234513
#        247349
#        262064
#
# Disc length: 3684 seconds
#
# Revision: 4
# Processed by: cddbd v1.5.1PL0 Copyright (c) Steve Scherf et al.
# Submitted via: ExactAudioCopy v0.95a5
#
DISCID=200e6214
DTITLE=White, Josh - I ain't got nobody CD 1
DYEAR=1900
DGENRE=
TTITLE0=Friendless city blues
TTITLE1=Did you read that letter
TTITLE2=Black and evil blues
TTITLE3=Paul and Sila's bound in jail
TTITLE4=New kilk cow blues
TTITLE5=Milk cow blues
TTITLE6=Black man
TTITLE7=Lord, I want to die easy
TTITLE8=My father is a husbandman
TTITLE9=Howiling wolf blues
TTITLE10=Low cotton
TTITLE11=Bed springs blues
TTITLE12=Stormy weather no1
TTITLE13=Greenville Sheik
TTITLE14=Lazy black snake blues
TTITLE15=Welfare blues
TTITLE16=Silicosis is killin'me
TTITLE17=Double crossing woman
TTITLE18=Downhearted man blues
TTITLE19=Badly mistreated man
EXTD=
EXTT0=
EXTT1=
EXTT2=
EXTT3=
EXTT4=
EXTT5=
EXTT6=
EXTT7=
EXTT8=
EXTT9=
EXTT10=
EXTT11=
EXTT12=
EXTT13=
EXTT14=
EXTT15=
EXTT16=
EXTT17=
EXTT18=
EXTT19=
PLAYORDER=
